/vscmnt/brussel_pixiu_data/_data_brussel/112/vsc11236/PredSimResults/SUBJ07_Dhondt2024_3seg/weighted-LRposFixed/worker_01.mot
version=1
nRows=4
nColumns=124
inDegrees=yes
endheader
                time	         pelvis_tilt	         pelvis_list	     pelvis_rotation	           pelvis_tx	           pelvis_ty	           pelvis_tz	       hip_flexion_r	     hip_adduction_r	      hip_rotation_r	        knee_angle_r	       ankle_angle_r	    subtalar_angle_r	         mtp_angle_r	       hip_flexion_l	     hip_adduction_l	      hip_rotation_l	        knee_angle_l	       ankle_angle_l	    subtalar_angle_l	         mtp_angle_l	    lumbar_extension	      lumbar_bending	     lumbar_rotation	          arm_flex_r	           arm_add_r	           arm_rot_r	        elbow_flex_r	          arm_flex_l	           arm_add_l	           arm_rot_l	        elbow_flex_l	glut_med1_r/activation	glut_med2_r/activation	glut_med3_r/activation	glut_min1_r/activation	glut_min2_r/activation	glut_min3_r/activation	semimem_r/activation	semiten_r/activation	bifemlh_r/activation	bifemsh_r/activation	    sar_r/activation	add_long_r/activation	add_brev_r/activation	add_mag1_r/activation	add_mag2_r/activation	add_mag3_r/activation	    tfl_r/activation	   pect_r/activation	   grac_r/activation	glut_max1_r/activation	glut_max2_r/activation	glut_max3_r/activation	iliacus_r/activation	  psoas_r/activation	quad_fem_r/activation	    gem_r/activation	   peri_r/activation	rect_fem_r/activation	vas_med_r/activation	vas_int_r/activation	vas_lat_r/activation	med_gas_r/activation	lat_gas_r/activation	 soleus_r/activation	tib_post_r/activation	flex_dig_r/activation	flex_hal_r/activation	tib_ant_r/activation	per_brev_r/activation	per_long_r/activation	per_tert_r/activation	ext_dig_r/activation	ext_hal_r/activation	glut_med1_l/activation	glut_med2_l/activation	glut_med3_l/activation	glut_min1_l/activation	glut_min2_l/activation	glut_min3_l/activation	semimem_l/activation	semiten_l/activation	bifemlh_l/activation	bifemsh_l/activation	    sar_l/activation	add_long_l/activation	add_brev_l/activation	add_mag1_l/activation	add_mag2_l/activation	add_mag3_l/activation	    tfl_l/activation	   pect_l/activation	   grac_l/activation	glut_max1_l/activation	glut_max2_l/activation	glut_max3_l/activation	iliacus_l/activation	  psoas_l/activation	quad_fem_l/activation	    gem_l/activation	   peri_l/activation	rect_fem_l/activation	vas_med_l/activation	vas_int_l/activation	vas_lat_l/activation	med_gas_l/activation	lat_gas_l/activation	 soleus_l/activation	tib_post_l/activation	flex_dig_l/activation	flex_hal_l/activation	tib_ant_l/activation	per_brev_l/activation	per_long_l/activation	per_tert_l/activation	ext_dig_l/activation	ext_hal_l/activation	 ercspn_r/activation	 ercspn_l/activation	 intobl_r/activation	 intobl_l/activation	 extobl_r/activation	 extobl_l/activation	
          0.00000000	         -2.92608165	         -0.43612561	          1.49547833	          0.00000000	          0.84986287	         -0.00162165	         27.61014881	          2.63899338	          2.10446789	        -10.99848363	          9.50344548	         -0.46982303	          0.23205392	        -16.67470993	          1.45837705	          7.80249598	         -6.07593549	          3.68768928	         13.33685843	         14.53783958	         -7.07676561	          0.08656071	         -1.27399670	        -15.92006813	        -14.16673607	         -1.98119249	         48.97015013	         10.00825835	        -14.14433455	         18.67127886	         51.23556197	          0.01000211	          0.01000769	          0.01161228	          0.01000398	          0.01000518	          0.01001191	          0.18561510	          0.05804488	          0.04770672	          0.01001994	          0.01349939	          0.08208081	          0.12173171	          0.12775563	          0.12417428	          0.09328087	          0.01000593	          0.02121310	          0.05120415	          0.01161999	          0.01248524	          0.06467089	          0.01437619	          0.01374849	          0.02239378	          0.01001582	          0.01003078	          0.01000282	          0.07769226	          0.07773239	          0.06494401	          0.01000090	          0.01000225	          0.01000043	          0.01161537	          0.01161578	          0.01161487	          0.25785270	          0.17555595	          0.12451772	          0.10347158	          0.28336298	          0.07311964	          0.17115488	          0.09290403	          0.05821647	          0.23869485	          0.20768901	          0.13947435	          0.01023075	          0.01001827	          0.01001409	          0.03633114	          0.08339753	          0.01000374	          0.01000294	          0.01000675	          0.01002627	          0.01001701	          0.37948492	          0.01001950	          0.01001847	          0.01569288	          0.01171322	          0.01005144	          0.20548225	          0.38453400	          0.01564271	          0.01566920	          0.05048813	          0.27713483	          0.01000609	          0.01000747	          0.01000608	          0.29728324	          0.35310500	          0.26565675	          0.26762396	          0.32280226	          0.40598189	          0.01660457	          0.07199464	          0.19359740	          0.01349339	          0.01351311	          0.01640220	          0.01349843	          0.01000028	          0.03333657	          0.01000084	          0.07682109	          0.01000181	
          0.00969016	         -2.91961241	         -0.71477843	          1.62756786	          0.01438741	          0.84935584	         -0.00142403	         26.95346724	          3.16714866	          2.10997767	        -10.62889888	          8.77071522	         -0.54307392	          0.23617735	        -16.59677911	          1.15608568	          7.75408529	         -7.87285353	          2.72040962	         13.66290480	         15.56472068	         -6.95673659	          0.55917668	         -1.31885121	        -16.50506331	        -14.18450474	         -2.41110743	         48.81853848	          9.53404716	        -14.17429172	         18.59579454	         52.50559622	          0.01161531	          0.01161296	          0.01000155	          0.01161683	          0.01161616	          0.01147447	          0.15980757	          0.04997597	          0.04107554	          0.01000172	          0.01162461	          0.10328569	          0.22941945	          0.11001125	          0.19534765	          0.09467905	          0.01035350	          0.03199259	          0.04409106	          0.01000665	          0.01074992	          0.07631302	          0.01567048	          0.01240224	          0.21210799	          0.08984893	          0.01000304	          0.01565965	          0.11593275	          0.11090157	          0.09584670	          0.01000146	          0.01000240	          0.01000113	          0.01000067	          0.01000330	          0.01000305	          0.30550943	          0.19411979	          0.11850269	          0.14252463	          0.31641215	          0.06295487	          0.18369216	          0.07998637	          0.05012186	          0.20551031	          0.17881223	          0.12008164	          0.01002478	          0.01000366	          0.01000245	          0.03127980	          0.07180310	          0.04320154	          0.02328555	          0.01003554	          0.01005193	          0.01001047	          0.32672144	          0.08783420	          0.01167375	          0.01351744	          0.01009514	          0.01001616	          0.17691146	          0.33106655	          0.01346935	          0.01349309	          0.04346826	          0.23860263	          0.01000617	          0.01000756	          0.01000611	          0.25594726	          0.30400781	          0.23664292	          0.24293335	          0.27792837	          0.34954565	          0.01429583	          0.06199011	          0.18955640	          0.01161762	          0.01163427	          0.01412191	          0.01162161	          0.02403384	          0.02870136	          0.02958329	          0.06613952	          0.01822507	
          0.01938031	         -2.91009740	         -1.00531517	          1.74739836	          0.02894086	          0.84882306	         -0.00122841	         26.26574101	          3.65524088	          2.13121472	        -10.78925543	          7.78491487	         -0.58796537	          0.24210449	        -16.41083381	          0.85813855	          7.69237963	         -9.85798567	          1.59441273	         13.96262898	         16.56908180	         -6.82887056	          1.04478052	         -1.35582167	        -16.93235552	        -14.22037679	         -2.65908770	         48.30417446	          9.00957882	        -14.18995415	         18.49061727	         53.66723540	          0.01000046	          0.01000129	          0.06078204	          0.01000212	          0.01000195	          0.01000208	          0.13758720	          0.04313858	          0.03536542	          0.01649020	          0.01349408	          0.08892802	          0.23933885	          0.26258767	          0.17298629	          0.08151762	          0.01000162	          0.02756384	          0.14791934	          0.03304649	          0.02209771	          0.06570436	          0.01349384	          0.01349358	          0.27320464	          0.07735812	          0.01049864	          0.01348321	          0.09981388	          0.09548239	          0.08252057	          0.01568701	          0.01784100	          0.01352257	          0.01852244	          0.01412803	          0.01770676	          0.26302984	          0.19829747	          0.14114151	          0.12270825	          0.27241703	          0.06068008	          0.15815127	          0.06886487	          0.04315278	          0.17693691	          0.15395019	          0.10338542	          0.01817522	          0.01161379	          0.01161877	          0.02693078	          0.06182022	          0.03719745	          0.08094299	          0.01163844	          0.01165232	          0.01425918	          0.28129385	          0.07562928	          0.01007952	          0.01164827	          0.01157139	          0.01161370	          0.15231294	          0.28503344	          0.01160022	          0.01162061	          0.03742459	          0.20543007	          0.02905939	          0.01721116	          0.01177530	          0.22035882	          0.26173697	          0.20373873	          0.20915576	          0.23928614	          0.30094519	          0.01230814	          0.05338545	          0.19161317	          0.01000322	          0.01001676	          0.01215890	          0.01000575	          0.03882003	          0.02471063	          0.04080659	          0.05694318	          0.01569159	
          0.02907047	         -2.89863256	         -1.32094597	          1.85592925	          0.04356847	          0.84828743	         -0.00106571	         25.54836556	          4.06342461	          2.21854221	        -11.16081852	          6.62855222	         -0.61356047	          0.23973137	        -16.09931459	          0.55445409	          7.60445226	        -12.04200206	          0.29266152	         14.22253247	         17.50047779	         -6.69965616	          1.55758272	         -1.38261858	        -17.18280056	        -14.28517081	         -2.71209485	         47.41777714	          8.45355042	        -14.18320496	         18.36492243	         54.70827357	          0.25752704	          0.27501636	          0.30449837	          0.22994825	          0.09413278	          0.15805593	          0.11845650	          0.03715887	          0.04401689	          0.01419885	          0.01162392	          0.07656364	          0.20606082	          0.22607780	          0.14893659	          0.07730735	          0.01159308	          0.02373751	          0.12735391	          0.17005367	          0.01903070	          0.05657279	          0.01161956	          0.01161906	          0.23521843	          0.06660505	          0.02475606	          0.01161380	          0.13477136	          0.09137166	          0.09959441	          0.01350590	          0.01536049	          0.01164237	          0.01594713	          0.01216440	          0.01524543	          0.40762110	          0.26173200	          0.12400635	          0.46701591	          0.39841353	          0.24256504	          0.20285669	          0.05928977	          0.03715271	          0.28403257	          0.13254648	          0.08901072	          0.01575618	          0.01000571	          0.01000542	          0.02318659	          0.05322594	          0.03202758	          0.06969029	          0.01002331	          0.01004095	          0.01227928	          0.24219210	          0.06512643	          0.01001539	          0.01003877	          0.01000722	          0.01000729	          0.13113507	          0.24540185	          0.01000117	          0.01000833	          0.03222114	          0.17686736	          0.02501948	          0.01481883	          0.01013859	          0.18971881	          0.22534365	          0.17540966	          0.18007398	          0.20601593	          0.25910132	          0.01059727	          0.09503030	          0.18420129	          0.01000525	          0.01000290	          0.01047212	          0.03546521	          0.05638471	          0.02127500	          0.03513263	          0.04902553	          0.01350987	
